<svg width="500" height="500" viewBox="0 0 500 500" fill="none" xmlns="http://www.w3.org/2000/svg"><path d="M122.979 290.184c7.869 0 14.239-3.498 14.239-14.364v-7.745c-2.123 4.872-8.618 9.993-17.737 9.993-9.742.125-24.481-5.371-24.481-27.354 0-16.738 10.367-27.23 24.606-27.23 9.118.125 15.364 5.371 17.862 10.242v-8.868h13.739v49.213c0 17.487-11.116 25.73-28.228 25.73-16.862.125-25.2311-7.619-26.7299-16.862h13.9889c1.499 4.622 5.122 7.245 12.741 7.245zm.25-22.233c9.118 0 14.489-6.745 14.489-17.362v-1c0-10.242-6.62-15.987-14.489-15.987-8.869 0-14.24 6.744-14.24 17.237 0 5.246 1.249 9.492 3.748 12.615 2.747 2.998 6.495 4.746 10.492 4.497zM180.061 204.498h-14.864v13.49h14.864v-13.49zM179.811 224.858h-14.115v54.709h14.115v-54.709zM201.045 279.567v-44.841H193.3v-9.868h7.745v-7.744c0-11.242 6.744-17.237 18.236-17.112 1.748 0 2.997 0 4.247.125 1.249 0 2.623.25 3.747.499v10.368c-.875-.125-1.749-.25-2.623-.25-.875 0-1.749-.125-2.748-.125-2.249 0-4.122.624-5.246 1.749-1.249 1.498-1.874 3.372-1.749 5.246v7.119h11.242v9.868h-11.242v44.716l-13.864.25zM262.748 269.199c2.498 0 4.996-.374 7.369-1.124v10.617c-3.622 1.124-7.244 1.749-11.116 1.624-11.741 0-17.362-4.996-17.362-15.738v-29.852h-7.744v-9.868h7.744v-13.615h13.989v13.74h13.24v9.868h-13.365v27.604c.125 5.495 3.123 6.744 7.245 6.744zM316.707 262.455h12.99c-2.248 11.616-11.241 18.236-25.106 18.236-9.118 0-15.488-2.623-20.359-7.744-4.747-4.872-7.744-11.741-7.744-20.735 0-17.361 11.616-28.728 27.853-28.728 10.867 0 19.236 5.496 22.983 13.865 2.248 4.996 3.123 10.742 2.873 18.111h-40.22c0 5.121.875 7.12 2.873 9.992 1.749 2.748 6.121 4.997 11.741 4.997 2.748.125 5.621-.625 7.994-2.124 1.999-1.374 3.498-3.497 4.122-5.87zm-12.74-28.729c-7.245 0-12.99 4.372-13.49 12.741h26.23c-.125-7.619-5.121-12.741-12.74-12.741zM376.662 262.455h12.99c-2.249 11.616-11.242 18.236-25.106 18.236-9.118 0-15.489-2.623-20.36-7.744-4.746-4.872-7.744-11.741-7.744-20.735 0-17.361 11.616-28.728 27.854-28.728 10.867 0 19.235 5.496 22.982 13.865 2.249 4.996 3.123 10.742 2.873 18.111h-40.219c0 5.121.874 7.12 2.748 9.992 1.748 2.748 6.12 4.997 11.741 4.997 2.748.125 5.621-.625 7.994-2.124 2.123-1.374 3.622-3.497 4.247-5.87zm-12.741-28.729c-7.244 0-12.99 4.372-13.49 12.741h26.231c-.125-7.619-5.122-12.741-12.741-12.741zM424.001 218.238c-2.998.999-10.992 3.622-12.99 4.122.749-4.247 1.373-8.369 1.748-12.74-2.248-.875-4.871-.875-7.244 0 .249 4.246.874 8.493 1.748 12.74-1.998-.5-9.867-3.123-12.99-4.122-.749 1.874-.874 3.997-.749 5.995 4.122 1.25 8.244 2.124 12.615 2.499-3.747 2.748-7.244 5.87-10.242 9.492 1.749 1.249 4.746 3.248 7.12 4.747 1.748-3.872 3.747-7.619 6.245-11.242 2.373 3.623 4.496 7.245 6.245 11.242 2.248-1.499 5.371-3.498 7.12-4.747-2.998-3.622-6.495-6.744-10.243-9.492 4.247-.5 8.494-1.249 12.616-2.499-.125-1.249-.375-4.996-.999-5.995z" fill="#000"/></svg>