<svg width="500" height="500" viewBox="0 0 500 500" fill="none" xmlns="http://www.w3.org/2000/svg"><path d="M75.6901 263.282v-19.493l-8 19.493h-4.507l-8-19.381v19.381H50v-27.831h7.0986l8.338 20.056 8.1127-20.056h7.3239v27.831h-5.1831zM101.718 249.197c-.563-.112-1.126-.112-1.577-.112-2.7044 0-4.9579 1.239-4.9579 5.408v8.789H90v-19.268h5.0704v2.817c1.1268-2.591 3.831-3.042 5.5216-3.042.45 0 .788 0 1.239.113v5.295h-.113zM110.169 256.408c2.028 0 3.606 1.578 3.606 3.606 0 1.916-1.578 3.606-3.606 3.606-1.915 0-3.606-1.578-3.606-3.606 0-1.915 1.691-3.606 3.606-3.606zM184.535 263.282v-11.493h-12.169v11.493h-5.408v-27.831h5.408v11.155h12.169v-11.155h5.409v27.831h-5.409zM203.803 263.282v-27.831h17.465v5.07h-12.057v6.31h10.817v4.845h-10.817v6.423h12.057v5.07h-17.465v.113zM234.789 263.282v-27.831h17.465v5.07h-12.057v6.31h10.817v4.845h-10.817v6.423h12.057v5.07h-17.465v.113zM280.31 243.676c-.226-1.577-1.578-3.944-5.071-3.944-2.591 0-4.394 1.691-4.394 3.493 0 1.578 1.014 2.705 3.042 3.155l3.831.789c5.071 1.014 7.775 4.282 7.775 8.225 0 4.282-3.606 8.564-10.028 8.564-7.324 0-10.592-4.733-11.042-8.676l5.07-1.352c.225 2.704 2.141 5.183 6.084 5.183 2.93 0 4.508-1.465 4.508-3.381 0-1.577-1.24-2.817-3.381-3.267l-3.831-.789c-4.394-.901-7.324-3.718-7.324-8 0-4.958 4.395-8.676 9.69-8.676 6.761 0 9.353 4.056 9.916 7.211l-4.845 1.465zM297.775 263.282v-27.831h17.464v5.07h-12.056v6.31H314v4.845h-10.817v6.423h12.056v5.07h-17.464v.113zM150.507 253.592c-.789 3.042-3.944 5.183-7.775 5.183-5.07 0-8.563-3.831-8.563-9.352 0-5.522 3.493-9.24 8.563-9.24 3.831 0 6.986 2.028 7.662 5.183l.113.564 5.183-1.578-.113-.451c-1.352-5.295-6.422-8.788-12.845-8.788-8.112 0-14.084 6.084-14.084 14.422 0 8.451 5.859 14.535 14.084 14.535 6.423 0 11.493-3.493 12.845-8.788l.113-.451-5.07-1.577-.113.338zM380.479 256.972h-11.268l-2.366 6.31h-5.746l10.704-27.831h6.31l10.591 27.831h-5.859l-2.366-6.31zm-9.465-4.958h7.662l-3.831-10.479-3.831 10.479zM432.535 263.282v-27.831H450v5.07h-12.056v6.31h10.817v4.845h-10.817v6.423H450v5.07h-17.465v.113zM398.958 235.563h5.634v11.944l10.591-11.944h6.648l-10.479 11.944 10.93 15.887h-6.986l-7.775-11.493-2.929 3.381v8.112h-5.634v-27.831zM348.141 253.592c-.789 3.042-3.944 5.183-7.775 5.183-5.07 0-8.563-3.831-8.563-9.352 0-5.522 3.493-9.24 8.563-9.24 3.831 0 6.986 2.028 7.662 5.183l.113.564 5.183-1.578-.113-.451c-1.352-5.295-6.422-8.788-12.845-8.788-8.112 0-14.084 6.084-14.084 14.422 0 8.451 5.859 14.535 14.084 14.535 6.423 0 11.493-3.493 12.845-8.788l.113-.451-5.07-1.577-.113.338z" fill="#000"/></svg>