<svg width="500" height="500" viewBox="0 0 500 500" fill="none" xmlns="http://www.w3.org/2000/svg"><path d="M170.12 306.34h-3.04v-2.06h8.14v2.06h-3.04v8.434h-2.158v-8.434h.098zM182.478 314.774V304.28h7.159v1.962h-5.002v2.255h4.609v1.962h-4.609v2.353h5.002v1.962h-7.159zM199.64 313.499c-1.079-.981-1.569-2.256-1.569-3.923 0-1.569.49-2.942 1.569-3.923 1.079-1.079 2.354-1.569 3.825-1.569 1.863 0 3.628.883 4.511 2.158l-1.373 1.373c-.785-.981-1.863-1.471-3.04-1.471-.981 0-1.765.294-2.354.98-.686.687-.981 1.471-.981 2.452 0 .981.295 1.765.981 2.354.687.686 1.471.98 2.354.98 1.177 0 2.255-.49 3.04-1.569l1.471 1.275c-.981 1.275-2.648 2.256-4.609 2.256-1.569.098-2.844-.392-3.825-1.373zM216.606 314.774V304.28h2.059v4.217h4.414v-4.217h2.059v10.494h-2.059v-4.315h-4.414v4.315h-2.059zM241.516 304.28h2.059v10.494h-1.373l-5.393-6.473v6.473h-2.06V304.28h1.373l5.492 6.473v-6.473h-.098zM253.971 313.401c-1.079-1.079-1.569-2.354-1.569-3.825s.49-2.844 1.569-3.923c1.079-1.079 2.354-1.569 3.923-1.569s2.844.49 3.923 1.569c1.078 1.079 1.569 2.354 1.569 3.825s-.491 2.746-1.569 3.825c-1.079 1.079-2.354 1.569-3.923 1.569-1.569.098-2.844-.392-3.923-1.471zm6.277-6.277c-.687-.686-1.373-.98-2.354-.98-.883 0-1.667.294-2.354.98-.686.687-.981 1.471-.981 2.354 0 .981.295 1.765.981 2.354.687.686 1.373.98 2.354.98.882 0 1.667-.294 2.354-.98.686-.687.98-1.471.98-2.354-.098-.883-.392-1.667-.98-2.354zM272.801 314.774V304.28h2.157v8.434h5.296v2.06h-7.453zM289.669 313.401c-1.079-1.079-1.569-2.354-1.569-3.825s.49-2.844 1.569-3.923c1.079-1.079 2.354-1.569 3.923-1.569s2.844.49 3.923 1.569c1.079 1.079 1.569 2.354 1.569 3.825s-.49 2.746-1.569 3.825c-1.079 1.079-2.354 1.569-3.923 1.569-1.569.098-2.844-.392-3.923-1.471zm6.277-6.277c-.687-.686-1.373-.98-2.354-.98-.883 0-1.667.294-2.354.98-.686.687-.98 1.471-.98 2.354 0 .981.294 1.765.98 2.354.687.686 1.373.98 2.354.98.883 0 1.667-.294 2.354-.98.686-.687.981-1.471.981-2.354-.099-.883-.393-1.667-.981-2.354zM307.518 313.401c-.98-.981-1.569-2.354-1.569-3.923s.491-2.844 1.569-3.923c1.079-.981 2.354-1.569 3.923-1.569 1.667 0 3.237.686 4.217 1.667l-1.373 1.471c-.784-.784-1.765-1.177-2.844-1.177-.98 0-1.765.295-2.452.981-.686.687-.98 1.471-.98 2.452 0 .981.294 1.765.98 2.452.687.686 1.472.98 2.452.98 1.079 0 2.158-.49 2.844-1.078v-1.471h-2.942v-1.864h4.806v4.315c-1.373 1.373-2.943 2.06-4.806 2.06-1.471.196-2.746-.294-3.825-1.373zM333.017 304.28l-3.629 6.865v3.629h-2.059v-3.629l-3.629-6.865h2.452l2.256 4.61 2.255-4.61h2.354zM115.691 227.588c5.002 0 8.631 1.373 11.181 4.119 2.549 2.746 3.726 5.983 3.726 9.906 0 3.922-1.275 7.257-3.923 9.905-2.549 2.648-6.472 4.021-11.67 4.021h-7.061v15.299H100v-43.25h15.691zm-.392 20.693c4.708 0 7.159-2.942 7.159-6.668 0-3.727-2.451-6.571-6.57-6.571h-7.846v13.239h7.257zM189.245 270.838l-12.847-17.653-5.492 6.571v10.984h-7.944v-43.25h7.944v21.282l17.26-21.282h9.611l-16.083 19.909 17.358 23.439h-9.807zM229.062 263.286l4.805-5.492c2.746 4.119 6.473 6.277 11.278 6.277 3.923 0 6.571-2.158 6.571-5.002 0-1.961-1.373-3.53-4.021-4.903-.588-.294-1.961-.883-4.315-1.766-2.256-.98-4.021-1.765-5.1-2.353-4.511-2.648-6.767-6.179-6.767-10.69 0-3.531 1.373-6.473 4.021-8.826 2.648-2.354 6.081-3.531 10.396-3.531 5.59 0 10.199 1.961 13.828 5.982l-4.413 5.787c-2.354-2.746-6.179-4.218-9.317-4.218-3.531 0-5.884 1.864-5.884 4.61 0 1.863 1.176 3.334 3.53 4.609l4.609 2.06c2.354.98 4.119 1.863 5.198 2.353 4.708 2.354 7.159 5.983 7.159 10.592 0 3.825-1.471 6.963-4.315 9.415-2.844 2.354-6.57 3.629-11.18 3.629-6.669-.197-12.651-3.139-16.083-8.533zM294.671 270.838v-43.25h8.042v17.457h18.928v-17.457h8.042v43.25h-8.042v-18.045h-18.928v18.045h-8.042zM382.739 228.471s-1.176-.883-3.04-.883c-1.863 0-3.04.883-3.04.883l-17.261 42.465s10.298-2.06 20.301-2.06c10.003 0 20.301 2.06 20.301 2.06l-17.261-42.465zM370.48 262.11l9.121-23.832h.294l9.121 23.832s-4.609-.687-9.317-.687c-4.707 0-9.219.687-9.219.687z" fill="#000"/></svg>