<svg fill="none" height="500" viewBox="0 0 500 500" width="500" xmlns="http://www.w3.org/2000/svg"><path d="m433.65 264.345c-11.189 9.959-17.791 11.414-22.827 9.623-4.14-1.454-4.14-5.483-3.245-8.84.448-1.566 3.805-15.106 3.805-15.106 1.454-5.483 2.126-9.623 1.678-12.308-.783-4.028-4.028-5.259-7.049-5.259-5.931 0-12.533 3.245-19.358 7.944.783-4.028-1.231-7.721-6.714-8.168-2.686-.224-6.042.559-9.176 2.462-4.699 2.797-16.784 13.203-29.093 22.938-12.084 9.512-25.064 17.456-31.666 17.344-3.133 0-7.609-1.678-5.148-11.077.448-1.679 4.7-19.135 4.812-19.47.56-2.686 1.119-5.595 0-7.945-1.119-2.574-4.028-4.252-7.497-4.588-1.343-.112-4.588 0-8.392 2.238-4.7 2.798-17.008 13.428-29.317 23.163-12.085 9.511-24.841 17.567-31.443 17.567-3.133 0-7.609-1.678-5.147-11.077.447-1.679 4.699-19.135 4.811-19.47.56-2.686 1.119-5.595 0-7.945-1.119-2.574-4.028-4.252-7.497-4.588-1.342-.112-3.58.112-6.49 1.231-12.756 4.924-32.226 25.289-46.325 35.919-3.469 2.573-8.84 5.595-14.434 5.595-1.567 0-2.91-.336-4.029-.895-2.909-1.567-4.587-5.707-4.252-11.973 7.162 0 14.099-2.126 19.694-6.043 5.707-4.028 8.616-8.952 8.616-14.658 0-4.029-2.685-9.959-9.287-9.959-7.162 0-13.987 3.693-20.142 10.854-5.147 5.819-8.728 13.204-9.287 20.701 0 0 0 0-.112.112-12.421 11.637-21.484 12.42-26.184 11.077-4.14-1.119-4.14-5.483-3.245-8.839.448-1.567 3.805-15.106 3.805-15.106 1.454-5.483 2.126-9.623 1.678-12.309-.783-4.028-4.028-5.259-7.049-5.259-5.931 0-12.5327 3.245-19.3584 7.944.7833-4.028-1.2308-8.168-6.7138-8.168-6.4899 0-16.5606 3.916-26.0718 13.54l2.9093 5.594c3.245-4.364 7.4971-9.511 13.5395-12.308 6.1543-2.91 7.6089-1.679 5.8186 5.483l-7.1614 28.533c-.4476 1.455-1.7903 2.35-3.0212 2.35h-2.5736l-1.119 3.357h20.3652l1.1189-3.357h-3.3569c-.5595 0-.8951-.112-1.2308-.448-.3357-.335-.4476-.895-.3357-1.566l6.49-26.184c5.7067-4.476 14.7701-10.406 17.9031-9.399 1.567.559 1.231 3.581.336 6.714l-5.035 19.693c-2.3502 9.512 4.364 14.995 11.861 15.33 6.154.224 15.777-2.238 26.743-11.749.895 7.497 5.371 13.092 15.889 13.092 8.504 0 15.666-4.364 22.044-9.399 9.623-7.497 28.421-26.52 40.059-32.562 2.238-1.231 4.252-1.902 5.483-1.343 2.349 1.119.335 7.273-.112 9.287l-4.364 17.121c-1.119 4.587-.784 8.056 2.014 11.413 2.685 3.357 7.161 4.588 11.301 4.588 8.952 0 21.484-9.623 34.017-19.134 11.19-8.505 23.834-18.016 29.541-21.932 2.349-1.567 3.804-2.35 4.923-1.679 1.902 1.007 0 7.609-.56 9.623l-4.14 17.121c-1.119 4.587-.783 8.056 2.014 11.413 2.686 3.357 7.162 4.588 11.302 4.588 8.952 0 21.596-9.511 34.24-18.911 11.19-8.504 28.87-23.945 33.457-23.945 1.791.111 1.343 2.573 0 7.608l-8.504 34.129h9.847l7.833-31.555c5.706-4.476 14.77-10.406 17.903-9.399 1.567.559 1.231 3.58.336 6.714l-5.035 19.693c-2.35 9.512 4.14 14.994 11.637 15.33 7.385.336 14.994-3.581 25.624-13.204-.224.336-2.35-1.902-2.35-1.902zm-278.734-20.813c3.022-4.252 6.378-6.49 9.288-6.49 3.245 0 3.916 3.357 3.916 5.819 0 4.14-1.678 7.609-5.035 10.183-3.245 2.573-7.833 4.14-13.54 4.699.672-5.259 2.462-10.07 5.371-14.211z" fill="#040000"/></svg>