<svg width="500" height="500" viewBox="0 0 500 500" fill="none" xmlns="http://www.w3.org/2000/svg"><path d="M161.057 215.8h76c2.285 0 4 2.057 3.543 4.343l-8.915 42.971c0 .229-.228.343-.457.343H211c-.229 0-.458-.228-.458-.571l5.029-25.943h-54.514c-.229 0-.457-.229-.457-.457v-20.229c0-.228.114-.457.457-.457z" fill="#000"/><path d="M177.628 255.457l-8.685 44.343c-.115.686.343 1.371 1.143 1.371h18.857c.571 0 1.028-.342 1.143-.914l8.685-44.571c0-.229-.114-.572-.457-.572h-20.228c-.229 0-.458.115-.458.343z" fill="#000"/><path d="M287.114 317.4c.229-3.086-21.486-5.371-21.486-5.371s1.372-4.915 1.715-6.4c.914-3.772.685-6.172-2.172-7.086-2.971-.914-5.143 1.143-6.628 4.457-1.372 3.086-3.886 8.914-3.886 8.914s-26.4.229-26.514 5.486c-.115 3.771 22.171 5.486 22.171 5.486s-2.514 8.457-5.943 15.314c-3.314 6.629-6.857 11.657-9.371 14.171-2.286-2.742-5.829-8.228-7.315-17.142-1.257-7.543-.8-22.629-.114-30.629.229-2.4.914-8.343-3.428-9.029-4.458-.8-5.943 4.115-6.858 7.658-1.828 7.542-2.971 18.285-1.942 28.8 1.714 16.571 10.971 31.2 19.314 31.2 9.486 0 20-22.172 27.086-40.229 17.942-.571 25.142-2.171 25.371-5.6zM364.6 193.057c-2.514-1.6-6.514-1.143-8.457.8-1.372 1.257-3.086 3.314-5.143 5.257-6.286 6.515-15.429 16.115-24.8 24.115-4.114 3.657-16.457 14.857-22.057 11.885-5.143-2.857-2.629-8.457 2.285-26.628 3.315-12.229 5.943-18.629 7.315-24.457.343-1.6-.115-4.572-2.743-5.943-2.629-1.486-5.372-.915-7.2 1.028-.914 1.029-2.4 2.857-2.857 3.315-10.286 12.8-38.057 42.514-53.715 37.714-7.657-2.286-14.057-21.257-13.028-29.143.343-2.743 3.543-7.429 5.028-9.943 1.258-2.171-.114-4.8-2.285-6.171-3.086-2.057-6.057-1.486-7.429.571-8.228 12.686-27.543 43.429-36.914 54.172-9.714 11.2-24.457 21.485-30.857 19.657-7.2-2.057-6.172-18.743-6.172-18.743s23.886-33.143 35.657-56.114c4.458-8.572 8.915-20.343 10.858-28.343 3.2-12.457 2.285-19.2-4.572-22.286-6.743-3.086-14.628 3.771-20.571 10.971-5.143 6.286-12.115 17.715-16.8 27.886-9.143 19.772-12.915 37.829-15.315 63.314-1.371 1.715-14.514 17.372-16.685 20.229-1.6 2.171-1.6 8.229.343 9.829 2.057.571 15.314-13.143 15.314-13.143s-.457 6.628 1.6 11.314c2.286 5.486 7.2 9.486 16.914 9.371 10.514-.228 30.629-13.028 41.714-26.628 7.315-8.914 13.715-18.972 20.458-29.6 2.628 8.228 7.314 14.971 10.514 17.943 4.114 4.228 8.914 6.057 16.343 6.171 14.057.114 36.914-16.343 41.943-23.086-4.915 22.972-1.486 31.2 1.6 34.286 1.942 1.714 4.8 2.857 7.885 2.857 8.8.115 18.972-4.914 32.115-15.771 9.942-8.229 19.657-18.286 25.942-24.8 1.943-1.943 3.658-3.886 4.8-5.257 2.058-1.943 1.829-5.029-1.028-6.629zm-195.086-26.628c6.057-12.572 17.486-28.915 23.2-32.458.343 4.572-5.028 22.172-13.143 37.829-7.428 14.171-14.628 29.029-23.314 41.829 4.229-23.658 7.543-35.2 13.257-47.2z" fill="#F7E752"/><path d="M268.371 216.257v83.772c0 .571.457 1.142 1.143 1.142h20.229c.571 0 1.142-.457 1.142-1.142v-83.772c0-.228-.228-.457-.457-.457h-21.6c-.228 0-.457.229-.457.457zM311.457 216.257v83.772c0 .571.457 1.142 1.143 1.142h30.971c.572 0 1.143-.457 1.143-1.142v-17.943c0-.572-.457-1.143-1.143-1.143h-10.057v-64.686c0-.228-.228-.457-.457-.457h-21.143c-.228 0-.457.229-.457.457z" fill="#000"/></svg>