<svg width="500" height="500" viewBox="0 0 500 500" fill="none" xmlns="http://www.w3.org/2000/svg"><path d="M271.851 336.751H261.84c-2.127 0-3.899 1.772-3.899 3.899v38.363c0 2.126 1.772 3.898 3.899 3.898 2.126 0 3.898-1.772 3.898-3.898v-11.252h6.113c7.709 0 11.164-5.493 11.164-10.721v-9.568c0-5.228-3.367-10.721-11.164-10.721zm3.367 20.289c0 1.329-.709 2.836-2.658 2.836h-5.759c-.531 0-.974-.443-.974-.975v-14.264.974c0-.531.443-.974.974-.974h5.759c1.949 0 2.658 1.417 2.658 2.835v9.568zM225.691 336.751c-2.215 0-3.987 1.772-3.987 3.987v38.186c0 2.215 1.772 3.987 3.987 3.987s3.987-1.772 3.987-3.987v-38.186c0-2.215-1.772-3.987-3.987-3.987zM193.973 374.937h-13.024c-.532 0-.975-.443-.975-.974v-33.225c0-2.215-1.772-3.987-3.987-3.987S172 338.523 172 340.738v38.186c0 2.215 1.772 3.987 3.987 3.987h17.986c2.215 0 3.987-1.772 3.987-3.987s-1.772-3.987-3.987-3.987zM319.341 357.838c-5.405-3.544-9.657-5.05-9.657-9.126 0-3.012 2.923-4.518 4.784-4.518 2.658 0 4.43 1.329 5.139 3.987.177.531.354.974.709 1.329.974 1.063 2.48 1.594 3.987 1.151 1.683-.531 2.746-2.037 2.658-3.721 0-.797-.266-1.772-.709-2.835-.443-1.063-3.101-7.354-11.873-7.354-5.138 0-12.581 3.101-12.581 12.493 0 2.569.975 4.873 2.304 6.733 1.772 2.392 5.404 4.696 8.594 6.734 3.455 2.215 7.177 3.987 7.177 7.531 0 2.924-2.038 5.404-5.759 5.404-2.924 0-4.873-2.126-5.582-4.961-.443-1.949-1.861-3.278-3.721-3.278-2.127 0-3.81 1.683-3.81 3.809 0 1.063.266 2.658.797 3.899 2.393 5.936 8.151 7.885 12.493 7.885 6.733 0 13.378-4.519 13.378-12.581.178-5.493-2.215-8.594-8.328-12.581z" fill="#000"/><path d="M219.667 186.221s-15.771-1.063-23.745-20.555C185.822 141.124 205.934 118 205.934 118s4.43 18.872 13.201 35.174c8.683 16.125 17.365 26.757 17.365 26.757s4.785-1.772 11.164-1.772 11.606 1.683 11.606 1.683-2.126-21.529 8.329-36.06c13.112-18.074 34.376-25.693 34.376-25.693s7.62 30.921-1.683 47.4c-9.746 17.277-22.061 24.01-22.061 24.01s6.733 7 7.708 19.404c.797 11.606-2.127 19.049.531 30.478 2.393 10.1 4.253 14.973 9.392 17.808 5.493 3.101 16.568 4.785 16.568 4.785s-.443 3.278-3.455 7.265c-4.696 6.202-9.746 5.847-9.746 5.847s1.417 5.405-5.759 11.164c-7.531 6.024-14.088 4.075-14.088 4.075s-1.683 5.936-9.48 7.974c-6.556 1.684-12.049-.088-12.049-.088s3.189-11.075-1.684-25.694c-9.125-27.466-19.58-14.973-41.907-19.226-29.149-5.582-42.173-30.921-42.173-30.921s15.328-1.949 25.516-11.518c7.177-6.734 7.797-12.67 14.974-19.669 3.278-3.367 7.088-4.962 7.088-4.962zm-5.228 37.478s-.266 1.152-1.595 2.569c-.974 1.063-3.278 2.658-3.278 2.658s3.987.443 6.379-1.152c1.684-1.063 2.127-2.215 2.127-2.215s1.329.443 2.658.709c1.417.266 2.569.177 2.569.177s-.266 1.241-1.417 2.481c-.975 1.063-3.101 2.569-3.101 2.569s4.075.532 7.353-2.037c1.684-1.329 2.304-3.013 2.304-3.013s6.29-1.86 11.518-5.404c7.354-4.873 7.442-9.037 7.442-9.037s-10.898 7.265-21.264 8.417c-7.531.797-16.479-3.19-16.479-3.19.531 3.81 4.784 6.468 4.784 6.468z" fill="#EF8491"/></svg>