<svg width="500" height="500" viewBox="0 0 500 500" fill="none" xmlns="http://www.w3.org/2000/svg"><path d="M362.1 200.5v9.8h-6.5v-20h1.4l17.4 9.4V191h6.5v19h-1.6l-17.2-9.5zM355.6 225.1h25.3v7.1h-25.3v-7.1zM362.1 257v9.8h-6.5v-20h1.4l17.4 9.4v-8.7h6.5v19h-1.6l-17.2-9.5zM355.6 296.3l4.1-1.4v-9l-4.1-1.4V277l25.3 9.9v6.8L355.6 304v-7.7zm9.5-3l7.8-2.8-7.8-2.8v5.6zM355.6 314.7h25.3v7.1h-25.3v-7.1zM248.2 160c35.3.5 63.2 15.5 66.5 41.6 1.7 13.6-1.7 29.3-9.2 45.1-9.8 20.4-17.5 37.6-14.1 48.4 2.6 8.3 5 10.1 13.9 14.3 3.9 1.8 6.8 2.4 8.7 4.7 1.8 2.1 2.6 4.6 2.6 8 0 4.7-1.4 8.3-3.6 11.4-2.4 3.3-8.5 8.3-15.7 11.7-7.9 3.8-23.8 8.7-46.4 8.6-42.4-.3-83.7-15.8-84.4-48.5-.2-9.7 3.4-19.2 7.9-28.9 11.1-23.6 18-38.7 20-54.1.7-5.2-.9-8.7-6.4-10.4-7.7-2.4-17.5-5.3-17.4-18.9.1-21.8 48-33.4 77.6-33z" fill="#000"/></svg>