<svg width="500" height="500" viewBox="0 0 500 500" fill="none" xmlns="http://www.w3.org/2000/svg"><path d="M96.7646 226.696s.8642-2.053 2.2685-2.377c1.7279-.54 2.0529-2.808.6481-3.457-1.7283-.864-10.8024-5.725-10.8024-5.725s-1.4043-.864-1.6204 1.296c-.9722 16.42-7.1296 30.139-14.6913 38.349-.4321.432-1.4043 1.944.9722.972 5.4013-3.132 14.3673-10.478 23.2253-29.058zM142.891 240.847c-14.692-3.349-19.769-11.127-24.63-19.12-.54-.973.54-1.405 2.701-2.161 2.052-.864 1.728-2.376 1.188-2.917-.54-.54-4.861-4.429-5.401-4.969s-1.08-.54-1.62.216c-2.593 3.241-3.565 4.321-4.321 4.753-.757.324-10.371-.108-11.235-.216-.8642-.108-1.6204-.216-1.6204.432.1081 1.621.9723 2.161 1.8364 2.161 0 0 10.911-.108 11.991-.108.972 0 1.836.108 2.268 1.836 5.185 20.741 19.445 30.679 21.173 31.868.972.648 1.188.324 1.296-.757.54-3.997 2.377-8.858 6.266-9.29 1.404-.216 1.404-1.404.108-1.728zM122.043 245.276c-.757-.648-1.837-.54-2.377.216-1.836 1.728-2.593 2.376-3.349 2.701-.756.324-28.1942-.109-29.0584-.217-.8642-.108-1.6203-.216-1.6203.433.108 1.62.9722 2.16 1.8364 2.16h6.4815c.6481 0 .8641.324.8641.972-.5401 10.803-3.7808 32.084-20.9567 42.886-.4321.216-.3241 1.08.6482.756 19.7684-6.481 29.3822-21.065 31.0032-43.534 0-.864.648-1.188 1.404-1.188h8.534c.972 0 1.62-.108 1.62 1.62-.108 4.537-.756 22.794-2.916 25.278-2.161 2.377-4.429 2.485-8.75 2.269-2.917-.216-3.673-.54-4.429-.649-.972-.108-1.0805 1.189 0 1.513 1.188.324 4.969 1.404 5.833 3.781 1.08 2.808.864 6.805 1.08 8.426.324 1.728 1.837 2.7 5.726 1.08 3.024-1.405 6.913-4.213 8.858-8.318 2.484-4.213 3.564-15.34 4.321-27.762.108-1.297.324-2.701.864-3.025 2.052-.972 1.728-2.377 1.188-2.917-.54-.648-6.265-5.941-6.805-6.481zM219.696 216.001c2.377 1.729 6.374 5.618 5.726 8.858-.973 5.618 2.484 7.022 3.781 7.13 1.62.216 5.833-.648 6.049-5.833.216-6.05-5.833-10.587-15.448-11.343-.864 0-.864.648-.108 1.188zM214.835 235.122c2.269 1.836 5.834 6.049 5.077 9.29-1.404 5.509 1.945 6.913 3.241 7.129 1.621.324 5.833 0 6.374-5.185.648-6.049-4.862-11.126-14.476-12.423-.864-.108-.972.54-.216 1.189z" fill="#000"/><path d="M219.156 268.501c-.324-.216-.648-.324-.972-.54-.756-.432-.972.432-.216 1.08 7.022 5.834 3.241 11.451 2.161 15.016-1.837 5.941.864 10.262 3.996 10.694 2.377.324 5.726-1.188 6.374-6.049.324-2.377.108-4.753-.54-6.914-1.08-3.673-3.133-8.858-2.917-13.287.216-4.213 9.722-30.355 10.046-31.327.324-.972-.432-1.512-.972-.324-2.484 6.157-10.802 25.926-13.827 30.463-.54.864-2.052 1.836-3.133 1.188z" fill="#000"/><path d="M285.483 280.816c1.081-.216 1.189-.54.216-1.296-6.481-5.294-11.234-11.235-14.475-17.824-.54-.973-.432-1.729.648-2.269 4.429-2.376 7.454-4.645 8.966-6.049.756-.648 1.297-.864 1.945-.864 2.376-.217 3.024-1.621 1.404-2.917-2.16-1.729-7.022-6.482-7.886-7.13-.648-.648-.756 0-.864.54-1.188 5.186-2.809 9.507-5.401 12.855-.432.54-1.08.648-1.512-.216-1.621-4.429-2.701-9.182-3.349-14.151-.108-1.08-.108-1.404 1.188-1.836 5.077-1.729 8.642-3.457 9.614-3.781.756-.216 1.513-.216 2.053-.108 2.808.648 3.997-1.297 2.484-2.809-1.62-1.62-7.021-7.238-7.67-7.778-.648-.54-1.512.108-1.944.54-4.429 5.834-14.367 12.855-21.389 14.8-1.296.432-2.16-.108-2.16-1.296.108-5.402.108-9.939.216-13.071 0 0 0-.108.108-.325.216-.54.972-.648 1.836-.756 9.29-1.08 20.525-4.645 22.361-5.185 1.405-.432 2.269-.216 3.241-.216 2.052 0 3.349-1.62 1.62-2.809-1.728-1.188-8.966-5.617-9.722-6.049-.756-.432-1.512 0-1.944.432-3.673 3.457-13.179 12.207-19.769 11.235-2.7-.864-6.157-1.729-6.157-1.729s-1.404-.648-1.296 1.081c2.376 23.873.324 57.361-4.97 69.351-.324.648-.324 1.405.649.756 10.262-11.558 12.855-31.327 13.503-46.882 0-1.404.756-1.945 2.376-2.053.648-.108 1.188 0 1.188 1.081.325 17.067.541 41.805.217 45.154-.109 1.944-1.081 5.401 2.7 5.509 3.781.108 5.833-1.836 6.049-2.917.217-.972.217-1.728.217-1.728l.108-47.423c0-1.08.324-1.296.972-1.512.864-.216 1.296.216 1.296 1.188.216 19.229 4.429 36.729 15.232 48.935.54.648.972.432 1.404-1.188 1.404-4.537 4.105-8.642 6.697-9.29zM294.773 280.492c-.324 3.457 2.917 7.454 6.049 6.049 11.559-5.941 21.605-36.08 22.253-49.799.108-3.133-1.08-3.997-1.944-5.617-.864-1.621.54-2.377 2.485-2.377 18.688.432 25.817 16.744 22.253 35.432-3.781 19.445-21.929 24.954-23.442 25.278-1.62.324-1.188.648 0 .648 31.867-1.404 33.488-23.981 33.704-32.623.108-8.642-4.429-32.408-32.731-32.408-23.01 0-33.812 23.118-34.46 36.188-.54 9.831 2.376 12.207 4.105 14.476 1.404 2.052 2.052 2.16 1.728 4.753zm19.552-49.691c1.621-.865 2.917-.865 3.349.432 2.053 5.293-4.429 31.651-14.151 40.509-2.052 1.944-3.889 3.025-5.293-.432-4.213-10.803 1.836-33.272 16.095-40.509z" fill="#000"/><path d="M420.838 282.004c-7.13.972-14.584.648-21.497-.648-1.405-.324-1.513-.972-.54-1.728 1.728-1.297 3.24-2.809 4.753-4.321 1.08-1.297 2.484-1.405 3.132-1.405 2.593-.216 4.321-2.16 3.025-3.348-.756-.757-7.994-6.374-8.858-7.13-.864-.648-1.296-.864-1.836-.108-1.837 1.728-2.917 2.268-3.673 2.593-.54.216-8.858.108-14.692 0-.864 0-.864-.325-.432-.865.216-.216 1.405-2.592 3.025-2.7 1.945-.108 2.593-2.053 1.188-2.377-.216-.108-.54-.108-.864-.216h-.216c-1.08-.324-.972-1.08 0-1.08h14.907c.757 0 .973.432.973 1.08.108 1.296.648 2.269 3.456 2.269 3.889 0 5.942-1.621 6.158-2.701.216-.972.108-1.188.108-1.188.108-3.457.216-17.608.108-23.982 0-1.08.108-1.512.432-1.836 3.457-2.593 1.836-3.781.648-4.645-.756-.54-5.833-4.321-6.589-4.861-.865-.54-1.513-.864-2.053 0-1.188 1.512-2.268 3.565-3.457 3.889-.432.108-4.969.108-10.37.216-1.08 0-1.296-.432-.54-1.189 1.836-1.728 3.565-3.672 4.861-5.401.54-.648 1.188-.972 2.377-.972h21.388c1.729 0 1.729-1.62 1.081-2.052-1.297-1.081-6.158-5.078-6.806-5.618-.756-.648-1.188-.432-1.836.216-1.945 1.945-4.537 4.753-5.294 4.969-.972.217-38.132.757-46.666-.216-1.08-.108-1.836 0-1.836.757.108 1.62 1.188 2.16 2.16 2.16h22.577c.648 0 1.08.324 1.08 1.188 0 1.837-.216 3.673-.324 5.186-.108.756-.432 1.188-1.404 1.188h-4.969c-.648 0-1.404-.108-2.161-.432h-.108c-1.296-.54-7.345-2.593-8.534-2.917-.972-.324-1.728-.216-1.512.972.54 2.593.972 28.195.54 32.516-.108 1.944-1.08 5.401 2.809 5.401 1.188 0 2.16-.216 2.917-.432.756-.324 1.62-.216 1.296.756-3.025 8.642-10.154 17.176-18.04 21.497-.54.324-1.513 1.188 1.08.648 4.105-1.08 12.423-3.997 20.525-11.235.54-.432 1.296-.756 1.836 0 1.512 2.161 3.457 4.537 5.725 6.698.54.54.756 1.188.324 1.62-8.318 5.617-18.148 9.938-28.302 12.639-1.62.432-.648.972 0 .972 11.018-.648 23.117-3.024 33.812-8.102 1.188-.324 1.944-.648 3.564.217 6.158 3.78 13.72 6.697 22.686 7.885.972.108 1.512 0 1.512-.756.216-5.185 3.781-10.478 7.238-11.559 1.62-.756 1.728-1.728.108-1.512zm-49.476-52.5s.108 0 .216-.108c.649-.432 1.081-.54 1.729-.54 6.805 0 23.225.108 24.197.108 1.189 0 1.837 0 1.837 1.621v4.429c0 .648-.324 1.188-1.081 1.188-6.373.108-21.172.108-25.817.108-.757 0-1.081-.432-1.081-1.08v-5.726zm-.108 9.939c0-.649.324-1.081 1.081-1.081 4.321 0 19.984 0 25.817.108.757 0 1.081.54 1.081 1.189v5.185c0 .648-.324 1.188-1.081 1.188-6.373.108-21.172.108-25.817.108-.757 0-1.189-.432-1.189-1.188l.108-5.509zm1.189 16.743c-.757 0-1.189-.432-1.189-1.08v-5.725c0-.648.432-1.08 1.189-1.08 4.429 0 20.092.108 25.925.108.757 0 1.081.54 1.081 1.188v5.509c0 .648-.432 1.188-1.189 1.188-6.481-.108-21.28-.108-25.817-.108zm21.821 13.503c-2.053 2.377-4.321 4.753-6.698 6.806-.864.756-1.836.864-3.025.432-3.456-1.512-6.481-3.133-8.75-4.969-.54-.432-.432-.972 0-1.512.324-.433.757-.757 1.081-1.189.756-.756 1.836-1.188 2.916-1.188h13.935c.973 0 1.189.756.541 1.62zM191.178 303.285c-.216-.54-.54-.972-.972-1.296-.432-.324-.865-.648-1.513-.973-.54-.324-1.188-.54-1.836-.756-.54-.216-.972-.324-1.512-.54-.433-.216-.865-.432-1.189-.648-.324-.216-.54-.54-.756-.972-.216-.324-.324-.756-.324-1.296 0-.433.108-.865.216-1.189.108-.324.432-.648.648-.972l.216-.216c.216-.216.54-.324.756-.432.433-.108.865-.216 1.297-.216.432 0 .756 0 1.08.108.108 0 .324.108.432.108.432.216.756.324 1.08.648l1.621 3.025h.108l-.216-3.781-.973.324c-.432-.108-.864-.324-1.404-.432h-.216c1.296-.648 2.053-1.513 2.161-2.161.216-.972.216-2.484.216-2.484 0-.432.216-.756.756-.756h21.281c1.512 0 1.944-1.297 1.404-2.161-.54-.972-4.105-6.913-4.537-7.562-.432-.756-1.296-.756-1.62 0-1.837 3.241-3.133 5.834-3.889 6.806-.432.432-1.297.54-1.297-.648v-16.204c0-.432.216-.756.757-.756h7.993c1.513 0 1.297-1.08.865-1.836-.649-.865-3.565-5.51-3.997-6.158-.432-.756-1.189-.756-1.621-.108-1.08 1.837-2.376 4.105-3.024 5.077-.216.324-.865.324-.865-.216v-14.151c0-.432.216-.648.757-.648h7.993c1.513 0 1.297-1.08.865-1.837-.649-.864-3.565-5.509-3.997-6.157-.432-.756-1.189-.756-1.621-.108-1.08 1.836-2.376 4.105-3.024 5.077-.216.324-.865.324-.865-.324v-12.315c0-.972.325-1.512 1.405-1.512h9.182c1.404 0 1.296-1.296.864-1.836-.54-.541-4.753-6.05-5.293-6.59-.648-.648-1.296-.54-1.837.216-1.62 2.269-3.78 5.833-4.321 5.942-.216 0-.972.108-2.16.108-1.404 0-1.296-.649-.648-1.513 2.052-2.592 3.565-5.077 5.725-8.966 0 0 .54-1.188 1.837-1.404 2.484-.324 3.024-2.377.864-3.349-1.621-.648-9.723-4.537-9.723-4.537s-1.08-.324-1.08.864c0 4.969-.324 12.315-1.08 16.96-.216 1.296-1.08 1.837-2.16 1.837-1.405 0-2.701 0-3.889-.109-1.837 0-1.837-1.188-1.297-2.16 1.189-2.269 2.377-4.753 3.673-7.562 0 0 .756-2.052 1.945-2.268 2.16-.216 2.376-2.161.756-2.917-1.621-.756-10.371-4.969-10.371-4.969s-1.188-.756-1.404 1.188c-.864 13.287-3.025 22.793-5.941 29.923-.216.54-.648.864-.648-.216v-10.046s.972-.648 1.62-1.189c1.512-1.188 1.08-2.592-.324-2.916-1.08-.216-7.238-1.405-8.102-1.513-.864-.108-1.62-.216-1.404 1.081 0 .216.108.54.108.864.108.54-.324.972-.864.324-1.297-1.188-3.025-2.593-4.753-3.889-.325-.324-.108-.54.216-.54h16.851c1.405 0 1.297-1.296.865-1.836l-5.834-5.834c-.648-.648-1.188-.432-1.728.216-1.729 2.269-3.781 4.969-4.321 5.077-.216 0-1.296.108-3.025.108-.54 0-.864-.216-.864-.756v-3.673s.972-.54 2.485-1.62c1.512-1.08 1.188-2.701-.324-3.025-1.081-.216-9.291-1.944-10.155-2.052-.864-.108-1.62-.216-1.404 1.08.432 2.269.648 6.374.756 9.506 0 .54-.324.756-.864.756-5.725-.108-11.235-.216-11.667-.216-.864-.108-1.62-.216-1.62.433.108 1.62.972 2.16 1.836 2.16h16.636c.432 0 .54.108.54.648v.54c-.324 2.269-.756 4.213-1.296 6.05-.108.432-.324.54-.864.324-.864-.324-1.837-.648-2.701-.972-.108 0-.216 0-.216-.109-.54-.216-.648-.54-.756-.864-.108-.756-.756-1.296-1.621-1.512-1.08-.216-6.049-1.836-6.805-1.944-.864-.109-1.62-.217-1.404 1.08.432 2.592.864 15.987.432 20.308-.108 1.945-.864 5.402 2.268 5.402 3.241 0 5.077-1.297 5.293-2.269 0-.216.108-.432.108-.648.109-.648.217-.864.973-.864h1.512c.432 0 .648.216.756.648.216 3.025.108 5.941-.108 8.75 0 .324-.324.648-.864.648h-1.728c-.649 0-.973-.108-1.837-.54h-.108c-1.08-.54-6.049-2.593-7.021-2.917-.757-.324-1.405-.216-1.297.972.432 2.593.864 28.195.432 32.516-.108 1.512-.54 3.889.649 4.861h-3.997l.108.216.648.108c.648 0 1.08.108 1.188.108.108 0 .216.108.216.216v14.367c0 .108-.108.108-.324.216-.216.108-.54.108-.972.108l-.864.108-.108.108h5.509c1.512 0 2.916-.216 4.105-.648 1.188-.432 2.268-.972 3.024-1.728.865-.756 1.513-1.621 1.945-2.593.432-.972.648-2.052.648-3.24 0-1.081-.216-2.161-.54-3.133-.432-.972-.972-1.729-1.728-2.377-.757-.648-1.729-1.188-2.809-1.512-.648-.216-1.404-.324-2.161-.432 1.729-.648 2.593-1.945 2.809-2.593.216-.972.216-1.836.216-1.836v-9.398c0-.756.432-.54.648-.108.216.432.324.756.432.972.54 1.188 1.513 2.484 3.349.216.648-.972 3.889-3.565 6.914-6.373.54-.541 1.296-.325 1.296.648v1.404c.216 1.944 1.62 2.376 2.917 2.485.54 0 1.296-.217 2.052-.757.216-.216.54-.108.54.216v1.297c0 1.296-.54 2.16-4.861 1.728-2.809-.324-3.889-.756-4.537-.864-.972-.108-1.188.972-.108 1.404 1.188.324 4.861 1.08 5.833 3.565.54 1.512.648 3.673.648 5.293 0 1.729.109 3.781 3.241 2.809 2.593-.756 4.645-2.053 5.942-4.105 2.592-3.457.972-11.883 1.728-24.306.108-1.296-.108-1.944.54-2.16 3.133-1.188 1.62-3.673 1.08-4.213s-4.861-3.997-5.509-4.537c-.648-.54-1.188-.756-1.728.108-1.189 1.62-2.377 3.781-3.241 3.997-.324.108-2.701.108-5.617.108-.54 0-.54-.216-.432-.648.54-1.405.864-2.701 1.188-3.889.216-.756.324-.864.864-1.08 1.08-.432 1.945-1.297.972-2.593-.216-.324-.864-.756-1.62-1.188-.324-.216-.432-.54.216-.54h3.349c.756 0 .864.324.864.864 0 1.404.432 2.592 2.484 2.592 3.241 0 5.078-1.296 5.294-2.268.216-.756.216-3.025.216-3.025 0-1.08.216-1.404.756-1.944 0-.108.108-.108.108-.216.972-1.08 1.944-2.269 2.917-3.565.54-.756.864-.432.864.648.216 18.364.324 43.966.108 46.883-.108 1.836-.864 4.969 1.944 5.401-.216.108-.432.324-.648.432-.432.432-.756.864-.972 1.296-.216.54-.324 1.081-.324 1.621 0 .648.108 1.08.324 1.62.216.432.54.864.864 1.188.432.324.864.648 1.296.865.54.216 1.081.432 1.621.648 1.296.432 2.268.864 2.916 1.512.649.54 1.081 1.404 1.081 2.377 0 .54-.108.972-.324 1.404-.217.432-.433.864-.757 1.188-.324.324-.756.54-1.188.756-.432.216-.972.324-1.512.324-.972 0-1.837-.216-2.593-.648-.756-.432-1.296-1.188-1.728-2.268l-.54-1.189h-.108l.216 3.565c.648.216 1.512.432 2.376.648.864.216 1.621.216 2.377.216.864 0 1.512-.108 2.268-.432.648-.324 1.297-.648 1.729-1.08.54-.432.864-.972 1.188-1.512.324-.54.432-1.189.432-1.837-.216-.54-.324-1.08-.648-1.62zm-.756-69.244c0-.756.324-1.08 1.08-1.08h1.404c.864 0 .973.108.973.648.108 3.781.108 8.426.216 13.287 0 .432-.216.756-.757.756h-2.268c-.54 0-.756-.324-.756-.756l.108-12.855zm0 16.636c0-.432.216-.648.756-.648h2.268c.541 0 .757.324.757.756 0 4.753.108 9.614.108 14.367 0 .432-.216.648-.757.648h-2.376c-.54 0-.756-.216-.756-.648v-14.475zm0 18.04c0-.432.216-.756.756-.756h2.376c.541 0 .757.324.757.756v16.636c0 .432-.216.648-.757.648h-2.376c-.54 0-.756-.324-.756-.756v-16.528zm-39.969 26.142c.864.432 1.62.972 2.268 1.728.54.757 1.08 1.513 1.296 2.485.325.972.433 1.944.433 3.025 0 .972-.108 1.836-.433 2.7-.324.865-.756 1.621-1.296 2.269-.54.648-1.296 1.188-2.16 1.62-.864.432-1.837.648-3.025.648l-1.944-.432v-14.583H147.212c.324 0 .756 0 1.08.108.864 0 1.513.216 2.161.432zm5.941-32.083c-.432 2.7-.864 5.077-1.512 7.129-.324 1.081-.864 1.837-1.729 1.837-.216 0-.324 0-.324-.108 0 0-.108-.108-.216-.108-.324-.216-.432-.54-.432-1.08v-8.75c.432-.433.864-.541 1.404-.541h1.621c.864.108 1.404.649 1.188 1.621zm-2.593-20.201v-10.046c0-.864.973-.648 1.513-.324 1.188.756 2.16 1.62 2.916 2.376.325.433.433.973.217 1.513-1.189 3.024-2.485 5.185-3.673 6.697-.54.54-.973.756-.973-.216zm8.75 28.303c-.972.216-1.944.324-2.808.432-1.405.216-1.729-.432-1.405-1.297.541-1.08 1.081-2.376 1.729-3.78.216-.649.648-.865 1.188-.433 1.188.973 1.945 2.053 2.485 3.025.54 1.188-.324 1.837-1.189 2.053zm.541-9.615h5.401c.972 0 2.052-.108 2.052 1.405v5.401c0 .432-.324.54-.648.108-1.512-1.62-3.889-2.917-7.562-4.213-.972-.324-1.08-.756-.756-1.512 0-.108.108-.216.108-.324.108-.432.648-.865 1.405-.865zm6.157-15.555c0 .648-.324.972-1.08.972h-13.395c-.432 0-.756-.216-.865-.432 0-1.08.757-1.404 1.405-1.836 1.728-.973 3.349-2.269 4.969-3.781.432-.432.972-.54 1.08.216v.108c.648 4.213 2.053 4.105 3.241 4.321 1.188.216 4.105-1.296 3.565-6.158-.216-1.404-.973-2.7-2.161-3.888-.432-.432-.54-.757-.216-1.189.54-.648.972-1.404 1.512-2.16.217-.324.433-.432.541-.432.54 0 1.296.324 1.296.972.108 4.321.216 9.938.108 13.287z" fill="#000"/><path d="M166.98 306.094c-.216.432-.324.864-.54 1.296-.216.432-.432.756-.756.972-.324.324-.648.54-1.08.648-.432.216-.864.216-1.513.216l-2.7-.108v-5.617h1.296c.54 0 .864 0 1.188.108.324 0 .541.108.757.216.216.108.324.216.432.432.108.216.108.432.216.756v.324h.108l.432-3.996h-.216l-.108.324c-.108.324-.216.54-.324.756-.108.216-.324.324-.432.432-.216.108-.432.216-.757.216-.324 0-.648.108-1.08.108h-1.512v-5.293h2.376c.541 0 .973.108 1.405.216.324.108.648.324.972.54.216.216.432.54.648.972.216.324.432.864.54 1.296l.108.325h.108l-.324-3.457h-9.29v.108h.54c.54 0 .756.108.864.108.108 0 .216.108.216.108v10.694c0 .108-.324.216-.972.324l-.648.108v.108h9.722l.756-3.673h-.108l-.324.433z" fill="#000"/><path d="M179.079 309.442c-.216 0-.432-.108-.648-.108-.216 0-.324-.108-.54-.216l-.432-.432c-.108-.216-.324-.432-.54-.756l-2.701-3.997c.864-.108 1.621-.432 2.161-.972s.864-1.08.864-1.837c0-.972-.432-1.728-1.188-2.268-.757-.54-1.945-.756-3.565-.756h-5.077v.108h.756c.54 0 .756.108.864.108.108 0 .216.108.216.108v10.694s-.108.108-.324.108c-.216 0-.432.108-.648.108l-.864.108-.108.108h5.617v-.108h-.756c-.216 0-.54-.108-.756-.108-.216 0-.324-.108-.324-.108v-5.617c.216.108.432.108.648.216.216.108.432.108.756.108l3.349 5.509.108.324h3.456l-.108-.108-.216-.216zm-7.345-5.941c-.216 0-.432-.108-.756-.216v-5.077h.864c1.08 0 1.944.216 2.484.648.54.54.864 1.188.864 2.052 0 .865-.216 1.513-.756 1.945-.54.432-1.188.648-2.052.648h-.648zM201.764 305.878l-.108.216c-.216.432-.324.864-.54 1.296-.216.432-.432.756-.756.972-.324.324-.648.54-1.08.648-.432.216-.865.216-1.513.216l-2.7-.108v-5.617h1.296c.54 0 .864 0 1.188.108.324 0 .54.108.756.216.216.108.324.216.432.432.109.216.109.432.217.756v.324h.108l.432-3.996h-.216l-.108.324c-.108.324-.216.54-.325.756-.108.216-.324.324-.432.432-.216.108-.432.216-.756.216s-.648.108-1.08.108h-1.512v-5.293h2.376c.54 0 .972.108 1.404.216.325.108.649.324.973.54.216.216.432.54.648.972.216.324.432.864.54 1.296l.108.325h.108l-.324-3.457h-9.29v.108h.54c.54 0 .756.108.864.108.108 0 .216.108.216.108v10.694c0 .108-.324.216-.972.324l-.648.108v.108h9.722l.756-3.673-.324.217zM211.486 305.878c-.216.54-.432 1.08-.648 1.512-.216.432-.54.756-.864 1.08-.324.324-.756.54-1.297.648-.54.108-1.08.216-1.836.216h-2.809l7.454-11.234v-.108h-8.858l-.324 3.457h.108l.108-.216c.216-.433.324-.865.54-1.189.216-.324.432-.648.864-.972.324-.216.757-.432 1.189-.648.432-.108 1.08-.216 1.728-.216h2.593l-7.454 11.342v.108h9.29l.648-3.997h-.108l-.324.217zM221.965 306.094c-.216.432-.324.864-.54 1.296-.216.432-.432.756-.757.972-.324.324-.648.54-1.08.648-.432.216-.864.216-1.512.216l-2.701-.108v-5.617h1.297c.54 0 .864 0 1.188.108.324 0 .54.108.756.216.216.108.324.216.432.432.108.216.108.432.216.756v.324h.108l.432-3.996h-.216l-.108.324c-.108.324-.216.54-.324.756-.108.216-.324.324-.432.432-.216.108-.432.216-.756.216s-.648.108-1.08.108h-1.513v-5.293h2.377c.54 0 .972.108 1.404.216.324.108.648.324.972.54.216.216.432.54.648.972.217.324.433.864.541 1.296l.108.325h.108l-.324-3.457h-9.291v.108h.541c.54 0 .756.108.864.108.108 0 .216.108.216.108v10.694c0 .108-.324.216-.972.324l-.649.108v.108h9.723l.756-3.673h-.108l-.324.433zM229.851 303.825c-.324-.324-.648-.54-1.081-.756-.432-.216-.864-.432-1.404-.54-.432-.108-.756-.324-1.08-.432-.324-.108-.648-.324-.864-.54-.216-.216-.432-.433-.648-.649-.108-.216-.217-.54-.217-.864 0-.324.109-.54.217-.864.108-.216.324-.432.54-.648.216-.216.432-.324.756-.432.324-.108.648-.108.972-.108.432 0 .864.108 1.08.216.324.108.54.324.864.432l1.297 2.376h.108l-.108-3.024-.756.216c-.324-.108-.649-.216-1.081-.324-.432-.108-.864-.108-1.404-.108-.54 0-1.08.108-1.512.324-.432.216-.864.432-1.189.756-.324.324-.54.648-.756 1.08-.216.432-.216.756-.216 1.188 0 .433.108.865.216 1.189.216.324.432.648.756.864.325.216.649.432 1.081.648.432.216.756.324 1.188.54.864.324 1.62.648 2.16 1.08.541.433.757.973.757 1.729 0 .756-.216 1.404-.757 1.836-.54.432-1.188.756-2.052.756-.756 0-1.404-.216-1.944-.54-.541-.324-.973-.864-1.297-1.62l-.54-1.08h-.108l.216 2.808c.54.216 1.08.324 1.729.432.648.108 1.296.216 1.836.216.648 0 1.188-.108 1.728-.324.54-.216.973-.432 1.297-.864.324-.324.648-.756.864-1.188.216-.432.324-.864.324-1.404 0-.541-.108-.973-.324-1.297-.108-.54-.324-.864-.648-1.08zM238.493 303.825c-.324-.324-.648-.54-1.08-.756-.433-.216-.865-.432-1.405-.54-.432-.108-.756-.324-1.08-.432-.324-.108-.648-.324-.864-.54-.216-.216-.432-.433-.648-.649-.108-.216-.216-.54-.216-.864 0-.324.108-.54.216-.864.108-.216.324-.432.54-.648.216-.216.432-.324.756-.432.324-.108.648-.108.972-.108.432 0 .864.108 1.08.216.324.108.541.324.865.432l1.296 2.376h.108l-.108-3.024-.756.216c-.324-.108-.648-.216-1.081-.324-.432-.108-.864-.108-1.404-.108-.54 0-1.08.108-1.512.324-.432.216-.864.432-1.188.756-.325.324-.541.648-.757 1.08-.216.432-.216.756-.216 1.188 0 .433.108.865.216 1.189.216.324.432.648.757.864.324.216.648.432 1.08.648.432.216.756.324 1.188.54.864.324 1.62.648 2.161 1.08.54.433.756.973.756 1.729 0 .756-.216 1.404-.756 1.836-.541.432-1.189.756-2.053.756-.756 0-1.404-.216-1.944-.54-.541-.324-.973-.864-1.297-1.62l-.54-1.08h-.108l.216 2.808c.54.216 1.08.324 1.729.432.648.108 1.296.216 1.836.216.648 0 1.188-.108 1.728-.324.541-.216.973-.432 1.297-.864.324-.324.648-.756.864-1.188.216-.432.324-.864.324-1.404 0-.541-.108-.973-.324-1.297-.108-.54-.324-.864-.648-1.08zM243.677 298.316c.108 0 .325-.108.649-.108l.756-.108v-.108h-5.185v.108h.54c.54 0 .756.108.972.108.108 0 .216.108.216.108v10.694s-.108.108-.216.108-.324.108-.756.108l-.756.108-.108.108h5.293l-.108-.108h-.54c-.54 0-.757-.108-.865-.108-.108 0-.216-.108-.216-.108v-10.694c.108 0 .108-.108.324-.108zM257.397 301.341c-.324-.757-.756-1.405-1.296-1.945-.541-.54-1.189-.972-2.053-1.296-.756-.324-1.62-.432-2.485-.432-.864 0-1.728.216-2.484.54-.756.324-1.404.756-2.053 1.404-.54.54-1.08 1.188-1.404 1.945-.324.756-.54 1.512-.54 2.268 0 .864.108 1.728.432 2.485.324.756.756 1.404 1.296 1.944.541.54 1.189.972 1.945 1.188.756.324 1.62.432 2.484.432.865 0 1.729-.216 2.485-.54.756-.324 1.512-.756 2.052-1.296.541-.54 1.081-1.188 1.405-1.944.324-.757.54-1.513.54-2.269.216-.972 0-1.728-.324-2.484zm-2.593 6.697c-.756.972-1.836 1.512-3.132 1.512-.649 0-1.297-.108-1.837-.432s-.972-.648-1.404-1.188c-.432-.54-.648-1.08-.864-1.836-.216-.757-.324-1.513-.324-2.377 0-1.836.432-3.349 1.188-4.321.756-1.08 1.836-1.512 3.132-1.512.649 0 1.297.108 1.837.432s.972.648 1.404 1.188c.432.54.648 1.08.864 1.837.216.756.324 1.512.324 2.376 0 1.945-.432 3.349-1.188 4.321z" fill="#000"/><path d="M270.252 298.1v-.108h-3.997v.108h.324c.648 0 1.08.108 1.296.216.216.108.324.216.324.432v8.102l-7.237-8.858h-3.565v.216h.216c.432 0 .864.108 1.08.432.324.216.54.432.648.648l-.108 9.506c0 .432-.432.648-1.296.648h-.432v.108h4.105v-.108h-.432c-.54 0-.972-.108-1.188-.216-.216-.108-.325-.216-.325-.432v-9.398l8.426 10.262h.108v-10.802c0-.216.108-.324.324-.432.217-.108.541-.216.973-.216l.756-.108zM276.841 303.825c-.324-.324-.648-.54-1.08-.756-.432-.216-.864-.432-1.404-.54-.432-.108-.756-.324-1.08-.432-.324-.108-.649-.324-.865-.54-.216-.216-.432-.433-.648-.649-.108-.216-.216-.54-.216-.864 0-.324.108-.54.216-.864.108-.216.324-.432.54-.648.216-.216.432-.324.757-.432.324-.108.648-.108.972-.108.432 0 .864.108 1.08.216.324.108.54.324.864.432l1.297 2.376h.108l-.108-3.024-.757.216c-.324-.108-.648-.216-1.08-.324-.432-.108-.864-.108-1.404-.108-.54 0-1.08.108-1.513.324-.432.216-.864.432-1.188.756-.324.324-.54.648-.756 1.08-.216.432-.216.756-.216 1.188 0 .433.108.865.216 1.189.216.324.432.648.756.864.324.216.648.432 1.08.648.433.216.757.324 1.189.54.864.324 1.62.648 2.16 1.08.54.433.756.973.756 1.729 0 .756-.216 1.404-.756 1.836-.54.432-1.188.756-2.052.756-.756 0-1.405-.216-1.945-.54-.54-.324-.972-.864-1.296-1.62l-.54-1.08h-.108l.216 2.808c.54.216 1.08.324 1.728.432.648.108 1.297.216 1.837.216.648 0 1.188-.108 1.728-.324.54-.216.972-.432 1.296-.864.324-.324.649-.756.865-1.188.216-.432.324-.864.324-1.404 0-.541-.108-.973-.324-1.297-.108-.54-.325-.864-.649-1.08zM285.915 303.825c-.324-.324-.648-.54-1.08-.756-.432-.216-.864-.432-1.404-.54-.433-.108-.757-.324-1.081-.432-.324-.108-.648-.324-.864-.54-.216-.216-.432-.433-.648-.649-.108-.216-.216-.54-.216-.864 0-.324.108-.54.216-.864.108-.216.324-.432.54-.648.216-.216.432-.324.756-.432.324-.108.648-.108.972-.108.433 0 .865.108 1.081.216.324.108.54.324.864.432l1.296 2.376h.108l-.108-3.024-.756.216c-.324-.108-.648-.216-1.08-.324-.432-.108-.864-.108-1.405-.108-.54 0-1.08.108-1.512.324-.432.216-.864.432-1.188.756-.324.324-.54.648-.756 1.08-.216.432-.216.756-.216 1.188 0 .433.108.865.216 1.189.216.324.432.648.756.864.324.216.648.432 1.08.648.432.216.756.324 1.188.54.865.324 1.621.648 2.161 1.08.54.433.756.973.756 1.729 0 .756-.216 1.404-.756 1.836-.54.432-1.188.756-2.053.756-.756 0-1.404-.216-1.944-.54-.54-.324-.972-.864-1.296-1.62l-.54-1.08h-.108l.216 2.808c.54.216 1.08.324 1.728.432.648.108 1.296.216 1.836.216.649 0 1.189-.108 1.729-.324.54-.216.972-.432 1.296-.864.324-.324.648-.756.864-1.188.216-.432.324-.864.324-1.404 0-.541-.108-.973-.324-1.297 0-.54-.324-.864-.648-1.08zM300.174 301.341c-.324-.757-.756-1.405-1.296-1.945s-1.188-.972-2.053-1.296c-.756-.324-1.62-.432-2.484-.432-.864 0-1.729.216-2.485.54-.756.324-1.404.756-2.052 1.404-.54.54-1.08 1.188-1.405 1.945-.324.756-.54 1.512-.54 2.268 0 .864.108 1.728.432 2.485.325.756.757 1.404 1.297 1.944.54.54 1.188.972 1.944 1.188.756.324 1.621.432 2.485.432.864 0 1.728-.216 2.484-.54.756-.324 1.513-.756 2.053-1.296s1.08-1.188 1.404-1.944c.324-.757.54-1.513.54-2.269.216-.972 0-1.728-.324-2.484zm-2.592 6.697c-.757.972-1.837 1.512-3.133 1.512-.648 0-1.296-.108-1.837-.432-.54-.324-.972-.648-1.404-1.188-.432-.54-.648-1.08-.864-1.836-.216-.757-.324-1.513-.324-2.377 0-1.836.432-3.349 1.188-4.321.756-1.08 1.837-1.512 3.133-1.512.648 0 1.296.108 1.836.432s.972.648 1.405 1.188c.432.54.648 1.08.864 1.837.216.756.324 1.512.324 2.376 0 1.945-.432 3.349-1.188 4.321z" fill="#000"/><path d="M313.569 298.316c.108 0 .324-.108.648-.108l.973-.108v-.108h-3.673l-3.781 9.182-3.565-9.182h-3.565v.108h.54c.541 0 .973.108 1.297.324l-.324 10.262c0 .216-.108.324-.216.432-.216.108-.541.216-1.189.216h-.432v.108h4.321v-.108h-.324c-.756 0-1.188-.108-1.404-.216-.216-.108-.324-.216-.324-.324l.216-10.046c0 .108.108.216.216.54l3.997 10.37h.216l4.321-10.802.216 10.262s0 .108-.108.108-.324.108-.648.108l-.865.108v.108h5.186v-.108h-.54c-.433 0-.757-.108-.865-.108-.108 0-.216-.108-.216-.108l-.216-10.694c-.108-.108-.108-.216.108-.216zM328.909 298.316c.108 0 .324-.108.648-.108l.972-.108v-.108h-3.673l-3.781 9.182-3.565-9.182h-3.564v.108h.54c.54 0 .972.108 1.296.324l-.324 10.262c0 .216-.108.324-.216.432-.216.108-.54.216-1.188.216h-.432v.108h4.321v-.108h-.325c-.756 0-1.188-.108-1.404-.216-.216-.108-.324-.216-.324-.324l.216-10.046c0 .108.108.216.216.54l3.997 10.37h.216l4.321-10.802.216 10.262s0 .108-.108.108-.324.108-.648.108l-.864.108v.108h5.185v-.108h-.54c-.432 0-.756-.108-.864-.108-.108 0-.216-.108-.216-.108l-.216-10.694c-.108-.108 0-.216.108-.216zM341.332 305.878l-.108.216c-.216.432-.324.864-.54 1.296-.216.432-.432.756-.756.972-.324.324-.648.54-1.081.648-.432.216-.864.216-1.512.216l-2.7-.108v-5.617h1.296c.54 0 .864 0 1.188.108.324 0 .54.108.756.216.216.108.324.216.432.432.108.216.108.432.216.756v.324h.108l.433-3.996h-.217l-.108.324c-.108.324-.216.54-.324.756-.108.216-.324.324-.432.432-.216.108-.432.216-.756.216s-.648.108-1.08.108h-1.512v-5.293h2.376c.54 0 .972.108 1.404.216.324.108.649.324.973.54.216.216.432.54.648.972.216.324.432.864.54 1.296l.108.325h.108l-.324-3.457h-9.29v.108h.54c.54 0 .756.108.864.108.108 0 .216.108.216.108v10.694c0 .108-.324.216-.972.324l-.648.108v.108h9.722l.756-3.673-.324.217z" fill="#000"/><path d="M353.214 309.442h-.216c-.216 0-.432-.108-.648-.108-.216 0-.324-.108-.54-.216l-.432-.432c-.108-.216-.324-.432-.54-.756l-2.701-3.997c.864-.108 1.621-.432 2.161-.972s.864-1.08.864-1.837c0-.972-.432-1.728-1.188-2.268-.757-.54-1.945-.756-3.565-.756h-5.077v.108h.756c.54 0 .756.108.864.108.108 0 .216.108.216.108v10.694s-.108.108-.324.108c-.216 0-.432.108-.648.108l-.864.108-.108.108h5.617v-.108h-.756c-.216 0-.54-.108-.756-.108-.217 0-.325-.108-.325-.108v-5.617c.217.108.433.108.649.216.216.108.432.108.756.108l3.349 5.509.108.324h3.456l-.108-.324zm-7.561-5.941c-.216 0-.432-.108-.757-.216v-5.077h.865c1.08 0 1.944.216 2.484.648.54.54.864 1.188.864 2.052 0 .865-.216 1.513-.756 1.945-.54.432-1.188.648-2.052.648h-.648z" fill="#000"/></svg>