<svg width="500" height="500" viewBox="0 0 500 500" fill="none" xmlns="http://www.w3.org/2000/svg">
<path d="M244.452 412.778C240.499 412.778 237.958 415.813 237.958 419.484C237.958 422.943 240.216 426.26 244.028 426.26C246.216 426.26 247.487 425.413 247.487 425.413V425.766H250.946V419.484C250.946 415.813 248.475 412.778 244.452 412.778ZM244.452 422.802C242.616 422.802 241.416 421.602 241.416 419.484C241.416 417.366 242.616 416.237 244.452 416.237C246.287 416.237 247.487 417.507 247.487 419.484C247.487 421.46 246.287 422.802 244.452 422.802Z" fill="black"/>
<path d="M263.795 412.778C261.889 412.778 260.477 413.696 260.477 413.696V413.202H257.018V425.766H260.477V419.484C260.477 417.437 261.747 416.166 263.512 416.166C265.206 416.166 266.195 417.225 266.195 419.484V425.766H269.653V419.272C269.653 415.107 267.677 412.778 263.795 412.778Z" fill="black"/>
<path d="M279.605 414.402V413.202H276.146V425.766H279.605V419.484C279.605 417.578 280.805 416.59 282.711 416.449C282.852 416.449 282.993 416.449 283.134 416.449V412.99C280.522 412.919 279.605 414.402 279.605 414.402Z" fill="black"/>
<path d="M292.03 413.201H288.571V425.765H292.03V413.201Z" fill="black"/>
<path d="M290.264 411.93C291.464 411.93 292.453 410.942 292.453 409.742C292.453 408.542 291.464 407.554 290.264 407.554C289.064 407.554 288.076 408.542 288.076 409.742C288.076 410.942 289.064 411.93 290.264 411.93Z" fill="black"/>
<path d="M207.956 416.518C207.956 416.518 208.873 415.671 210.568 415.671C213.462 415.671 215.862 417.93 215.862 420.895C215.862 423.789 213.462 426.189 210.568 426.189C207.603 426.189 205.273 423.789 205.273 420.895V411.789H208.026V416.518H207.956ZM207.956 420.824C207.956 422.448 208.944 423.718 210.568 423.718C212.191 423.718 213.462 422.448 213.462 420.824C213.462 419.201 212.191 418.001 210.568 418.001C209.509 418.001 208.521 418.565 207.956 419.412V420.824Z" fill="black"/>
<path d="M227.511 415.953L223.911 425.553C222.852 428.306 222.146 430 219.252 430H218.546V427.6C219.323 427.6 220.734 427.6 220.734 426.259C220.734 425.976 220.664 425.553 220.523 425.129L217.205 415.953H220.099L222.287 422.941L224.546 415.953H227.511V415.953Z" fill="black"/>
<path d="M221.292 266.377C220.162 267.648 218.186 268.918 216.068 268.918C211.692 268.918 209.503 265.671 209.503 261.507C209.503 256.142 213.315 250.989 218.821 250.989C221.221 250.989 222.915 252.189 223.55 253.389L223.903 251.342H226.868L223.974 267.789C223.056 273.295 219.386 275.977 214.656 275.977C212.186 275.977 209.856 275.201 208.656 274.212L209.221 271.107C210.703 272.73 212.75 273.295 214.656 273.295C217.974 273.295 220.374 271.53 221.009 267.789L221.292 266.377ZM223.056 256.424C222.492 254.73 220.939 253.601 218.892 253.601C214.797 253.601 212.468 257.695 212.468 261.436C212.468 264.26 213.95 266.165 216.703 266.165C218.892 266.165 220.586 264.895 221.856 263.13L223.056 256.424Z" fill="black"/>
<path d="M231.598 261.577C231.598 255.436 235.622 250.989 240.563 250.989C245.081 250.989 247.763 254.095 247.763 258.612C247.763 264.754 243.739 269.201 238.798 269.201C234.21 269.201 231.598 266.095 231.598 261.577ZM244.728 258.612C244.728 255.577 243.175 253.601 240.492 253.601C237.104 253.601 234.563 256.918 234.563 261.577C234.563 264.612 236.116 266.589 238.798 266.589C242.257 266.589 244.728 263.271 244.728 258.612Z" fill="black"/>
<path d="M252.772 261.577C252.772 255.436 256.796 250.989 261.737 250.989C266.255 250.989 268.937 254.095 268.937 258.612C268.937 264.754 264.914 269.201 259.972 269.201C255.455 269.201 252.772 266.095 252.772 261.577ZM265.972 258.612C265.972 255.577 264.42 253.601 261.737 253.601C258.349 253.601 255.808 256.918 255.808 261.577C255.808 264.612 257.361 266.589 260.043 266.589C263.431 266.589 265.972 263.271 265.972 258.612Z" fill="black"/>
<path d="M289.832 243.224H292.797L288.279 268.848H285.315L285.738 266.66C284.609 268.001 282.632 269.201 280.515 269.201C276.138 269.201 274.021 265.954 274.021 261.718C274.021 256.213 277.832 250.989 283.338 250.989C285.738 250.989 287.432 252.189 288.068 253.46L289.832 243.224ZM287.503 256.565C286.938 254.73 285.385 253.671 283.409 253.671C279.315 253.671 276.985 257.836 276.985 261.718C276.985 264.542 278.468 266.518 281.15 266.518C283.338 266.518 285.032 265.248 286.303 263.413L287.503 256.565Z" fill="black"/>
<path d="M205.414 304.213C208.731 304.213 210.284 306.33 210.284 309.083C210.284 309.577 210.214 310.071 210.143 310.566L208.096 322.071H205.131L207.037 311.201C207.178 310.566 207.178 310.142 207.178 309.718C207.178 307.954 206.402 306.895 204.567 306.895C202.59 306.895 201.037 308.377 200.049 310.142L198.002 322.001H195.037L196.943 311.13C197.014 310.495 197.084 310.071 197.084 309.648C197.084 307.883 196.308 306.824 194.473 306.824C192.496 306.824 190.873 308.307 189.955 310.071L187.837 321.93H184.873L187.978 304.424H190.943L190.52 306.683C191.649 305.271 193.273 304.071 195.602 304.071C197.79 304.071 199.343 305.271 199.837 306.895C201.178 305.413 203.084 304.213 205.414 304.213Z" fill="black"/>
<path d="M214.094 314.801C214.094 308.66 218.118 304.213 223.059 304.213C227.577 304.213 230.259 307.319 230.259 311.836C230.259 317.977 226.235 322.424 221.294 322.424C216.777 322.424 214.094 319.319 214.094 314.801ZM227.294 311.766C227.294 308.73 225.741 306.754 223.059 306.754C219.671 306.754 217.13 310.071 217.13 314.73C217.13 317.766 218.682 319.742 221.365 319.742C224.753 319.813 227.294 316.495 227.294 311.766Z" fill="black"/>
<path d="M245.931 307.53C245.508 307.248 244.802 307.036 244.026 307.036C242.19 307.036 240.355 308.236 239.437 310.283L237.32 322.072H234.355L237.461 304.566H240.426L240.002 306.824C240.99 305.342 242.896 304.213 244.802 304.213C245.579 304.213 246.214 304.354 246.426 304.495L245.931 307.53Z" fill="black"/>
<path d="M251.65 304.566H254.615L254.191 306.824C255.391 305.413 257.368 304.213 259.768 304.213C263.156 304.213 264.921 306.33 264.921 309.295C264.921 309.719 264.85 310.142 264.779 310.636L262.732 322.142H259.768L261.673 311.13C261.744 310.707 261.815 310.354 261.815 310.001C261.815 308.166 260.826 307.036 258.638 307.036C256.52 307.036 254.473 308.519 253.485 310.354L251.368 322.213H248.403L251.65 304.566Z" fill="black"/>
<path d="M273.178 322.071H270.213L273.319 304.565H276.284L273.178 322.071ZM275.719 301.177C274.66 301.177 273.813 300.33 273.813 299.271C273.813 298.213 274.66 297.365 275.719 297.365C276.778 297.365 277.625 298.213 277.625 299.271C277.696 300.26 276.778 301.177 275.719 301.177Z" fill="black"/>
<path d="M283.908 304.566H286.873L286.449 306.824C287.649 305.413 289.626 304.213 292.026 304.213C295.414 304.213 297.179 306.33 297.179 309.295C297.179 309.719 297.108 310.142 297.038 310.636L294.991 322.142H292.026L293.932 311.13C294.002 310.707 294.073 310.354 294.073 310.001C294.073 308.166 293.085 307.036 290.896 307.036C288.779 307.036 286.732 308.519 285.743 310.354L283.626 322.213H280.661L283.908 304.566Z" fill="black"/>
<path d="M314.543 319.601C313.414 320.872 311.437 322.142 309.32 322.142C304.943 322.142 302.755 318.895 302.755 314.73C302.755 309.366 306.567 304.213 312.072 304.213C314.472 304.213 316.167 305.413 316.802 306.613L317.155 304.566H320.12L317.225 321.013C316.308 326.519 312.637 329.201 307.908 329.201C305.437 329.201 303.108 328.424 301.908 327.436L302.472 324.33C303.955 325.954 306.002 326.519 307.908 326.519C311.225 326.519 313.625 324.754 314.261 321.013L314.543 319.601ZM316.237 309.648C315.672 307.954 314.12 306.824 312.072 306.824C307.978 306.824 305.649 310.919 305.649 314.66C305.649 317.483 307.131 319.389 309.884 319.389C312.072 319.389 313.767 318.119 315.037 316.354L316.237 309.648Z" fill="black"/>
<path d="M181.906 377.272H178.941L183.459 351.648H186.424L184.588 361.954C185.718 360.613 187.694 359.413 189.812 359.413C194.189 359.413 196.306 362.66 196.306 366.895C196.306 372.683 192.494 377.624 187.059 377.624C184.659 377.624 182.965 376.424 182.33 375.154L181.906 377.272ZM182.824 372.048C183.459 373.883 184.941 374.942 186.988 374.942C191.083 374.942 193.341 371.13 193.341 366.895C193.341 364.072 191.93 362.095 189.247 362.095C187.059 362.095 185.365 363.366 184.094 365.201L182.824 372.048Z" fill="black"/>
<path d="M215.083 377.271H212.119L212.542 375.083C211.342 376.424 209.366 377.624 206.966 377.624C203.719 377.624 201.883 375.577 201.883 372.612C201.883 372.189 201.954 371.694 202.024 371.2L204.072 359.694H207.036L205.13 370.847C205.06 371.271 204.989 371.694 204.989 372.047C204.989 373.812 205.907 374.942 208.095 374.942C210.213 374.942 212.26 373.389 213.248 371.553L215.366 359.694H218.33L215.083 377.271Z" fill="black"/>
<path d="M227.295 377.271H224.33L227.436 359.766H230.401L227.295 377.271ZM229.836 356.377C228.777 356.377 227.93 355.53 227.93 354.471C227.93 353.413 228.777 352.566 229.836 352.566C230.895 352.566 231.742 353.413 231.742 354.471C231.742 355.46 230.895 356.377 229.836 356.377Z" fill="black"/>
<path d="M239.506 377.271H236.542L241.059 351.648H244.024L239.506 377.271Z" fill="black"/>
<path d="M264.003 351.648H266.968L262.45 377.271H259.486L259.909 375.083C258.78 376.424 256.803 377.624 254.686 377.624C250.309 377.624 248.191 374.377 248.191 370.142C248.191 364.636 252.003 359.413 257.509 359.413C259.909 359.413 261.603 360.613 262.238 361.883L264.003 351.648ZM261.674 364.989C261.109 363.154 259.556 362.095 257.58 362.095C253.486 362.095 251.156 366.26 251.156 370.142C251.156 372.966 252.638 374.942 255.321 374.942C257.509 374.942 259.203 373.671 260.474 371.836L261.674 364.989Z" fill="black"/>
<path d="M273.179 377.271H270.214L273.32 359.766H276.284L273.179 377.271ZM275.72 356.377C274.661 356.377 273.814 355.53 273.814 354.471C273.814 353.413 274.661 352.566 275.72 352.566C276.779 352.566 277.626 353.413 277.626 354.471C277.626 355.46 276.779 356.377 275.72 356.377Z" fill="black"/>
<path d="M283.908 359.766H286.873L286.449 362.024C287.649 360.613 289.626 359.413 292.026 359.413C295.414 359.413 297.179 361.53 297.179 364.495C297.179 364.919 297.108 365.342 297.038 365.836L294.991 377.342H292.026L293.932 366.33C294.002 365.907 294.073 365.554 294.073 365.201C294.073 363.366 293.085 362.236 290.896 362.236C288.779 362.236 286.732 363.719 285.743 365.554L283.626 377.413H280.661L283.908 359.766Z" fill="black"/>
<path d="M314.473 374.801C313.344 376.072 311.367 377.342 309.25 377.342C304.873 377.342 302.685 374.095 302.685 369.93C302.685 364.566 306.497 359.413 312.003 359.413C314.403 359.413 316.097 360.613 316.732 361.813L317.085 359.766H320.05L317.156 376.213C316.238 381.719 312.567 384.401 307.838 384.401C305.367 384.401 303.038 383.625 301.838 382.636L302.403 379.53C303.885 381.154 305.932 381.719 307.838 381.719C311.156 381.719 313.556 379.954 314.191 376.213L314.473 374.801ZM316.238 364.919C315.673 363.224 314.12 362.095 312.073 362.095C307.979 362.095 305.65 366.189 305.65 369.93C305.65 372.754 307.132 374.66 309.885 374.66C312.073 374.66 313.767 373.389 315.038 371.625L316.238 364.919Z" fill="black"/>
<path d="M327.178 144.259C327.178 103.318 293.861 70 252.919 70C244.802 70 236.966 71.3412 229.696 73.7412C206.049 79.7412 186.919 97.2471 178.59 119.835C174.284 129.224 171.884 139.6 171.884 150.612C171.884 159.506 173.154 166.494 175.766 174.4C175.837 174.541 175.837 174.612 175.978 174.683C176.26 174.824 176.825 174.753 177.46 174.541C177.39 174.33 177.319 174.118 177.249 173.977C174.778 166.636 173.366 158.8 173.366 150.612C173.366 146.941 173.648 143.271 174.143 139.741C174.001 141.577 173.931 143.483 173.931 145.388C173.931 155.341 175.907 164.8 179.437 173.412C179.507 173.694 179.649 173.906 179.719 174.188C180.143 174.118 180.566 174.047 180.99 173.906C181.413 173.836 181.766 173.694 182.19 173.624C182.049 173.341 181.978 173.13 181.837 172.847C178.307 164.377 176.331 155.13 176.331 145.388C176.331 132.471 179.79 120.33 185.79 109.882C187.484 107.412 189.249 105.082 191.225 102.894C183.249 114.753 178.59 128.941 178.59 144.259C178.59 144.965 178.59 145.671 178.59 146.377C178.519 147.718 178.449 148.988 178.449 150.33C178.449 158.165 179.649 165.788 181.978 172.847C182.049 173.13 182.119 173.341 182.26 173.624C182.825 173.483 183.249 173.341 183.743 173.2C183.672 172.988 183.601 172.777 183.531 172.494C182.754 170.024 182.049 167.483 181.554 164.941C182.26 167.483 183.178 169.953 184.166 172.353C184.237 172.565 184.307 172.777 184.378 172.988C184.801 172.847 185.084 172.706 185.366 172.565C185.578 172.494 185.719 172.212 185.578 172C182.26 164.094 180.354 155.412 180.143 146.377C182.049 110.377 210.354 81.2236 246.002 77.9765C286.096 77.9765 318.637 110.588 318.637 150.683C318.637 152.659 318.566 154.565 318.425 156.471C317.578 161.977 316.096 167.271 314.049 172.283C314.049 172.283 314.049 172.353 313.978 172.353C313.908 172.565 313.978 172.847 314.261 172.988C314.896 173.2 315.672 173.483 316.519 173.694C316.59 173.412 316.661 173.2 316.802 172.918C317.225 171.577 317.649 170.165 318.002 168.824C320.472 161.483 321.743 153.647 321.743 145.459C321.743 131.059 317.578 117.577 310.378 106.141C319.413 117.859 324.919 132.471 325.343 148.212C324.849 157.177 322.731 165.647 319.343 173.483C319.202 173.765 319.131 173.977 318.99 174.259C319.555 174.4 320.049 174.471 320.543 174.541C320.613 174.33 320.755 174.118 320.825 173.906C321.813 171.577 322.731 169.247 323.508 166.777C322.943 169.247 322.237 171.647 321.39 174.047C321.319 174.259 321.249 174.471 321.178 174.683C321.672 174.753 322.096 174.753 322.449 174.753C322.661 174.753 322.802 174.612 322.872 174.4V174.33C325.413 166.777 326.825 158.73 326.825 150.33C326.825 149.624 326.825 148.918 326.825 148.212C327.108 146.871 327.178 145.53 327.178 144.259ZM182.119 127.812C185.084 115.035 191.366 103.529 200.119 94.353C208.59 87.4353 218.613 82.353 229.625 79.8118C207.107 87.2236 189.319 105.224 182.119 127.812ZM246.072 76.353C232.66 76.353 220.025 79.953 209.154 86.2353C211.978 84.1177 215.013 82.1412 218.119 80.4471C227.225 76.2824 237.319 73.8824 247.978 73.8824C258.355 73.8824 268.237 76.0706 277.131 80.0941C269.508 77.4824 261.39 76.0706 252.919 76.0706C250.59 76.0706 248.331 76.1412 246.072 76.353ZM318.637 134.73C312.566 106.847 290.684 84.753 262.943 78.2588C273.319 79.6706 282.919 83.3412 291.46 88.6353C305.79 99.7177 315.813 116.024 318.637 134.73ZM300.284 93.2236C287.719 80.5883 270.637 72.4706 251.719 71.5529C252.143 71.5529 252.496 71.5529 252.919 71.5529C288.002 71.5529 317.366 96.5412 324.143 129.647C319.978 115.177 311.578 102.612 300.284 93.2236Z" fill="black"/>
<path fill-rule="evenodd" clip-rule="evenodd" d="M316.094 196.988C311.647 197.553 306.423 197.271 303.247 197.13C303.953 197.13 303.741 197.059 303.247 196.988C298.87 196.424 294.141 197.624 292.8 196.847C290.611 197.271 288.776 196.706 285.6 197.341C285.741 196.777 284.117 196.847 283.2 196.847C271.553 196.424 260.4 197.271 252.706 197.341C252.706 197.13 254.117 197.2 254.329 196.988C216.282 197.2 182.258 196.847 145.27 197.482C143.435 197.977 143.999 198.471 143.646 199.53C145.129 199.741 146.329 199.953 147.67 200.235C171.811 200.306 196.941 199.882 219.035 200.094C224.894 200.165 231.105 199.812 237.458 199.741C269.223 199.6 316.941 200.165 354.565 199.6C355.27 199.177 355.623 198.682 355.341 198.047C342.847 197.059 326.329 197.906 316.094 196.988Z" fill="black"/>
<path fill-rule="evenodd" clip-rule="evenodd" d="M202.941 210.047C206.046 210.612 209.717 210.329 211.905 210.188C211.411 210.188 211.552 210.118 211.905 210.047C214.941 209.482 218.329 210.682 219.176 209.906C220.729 210.329 221.999 209.765 224.258 210.4C224.117 209.835 225.317 209.906 225.952 209.906C234.07 209.482 241.905 210.329 247.27 210.4C247.27 210.188 246.282 210.259 246.141 210.047C272.752 210.259 296.611 209.906 322.517 210.541C323.788 211.035 323.435 211.529 323.647 212.588C322.588 212.8 321.741 213.012 320.823 213.294C303.882 213.365 286.376 212.941 270.847 213.153C266.752 213.224 262.376 212.871 257.929 212.8C235.694 212.659 202.305 213.224 175.976 212.659C175.482 212.235 175.27 211.741 175.411 211.106C184.235 210.118 195.811 210.965 202.941 210.047Z" fill="black"/>
<path fill-rule="evenodd" clip-rule="evenodd" d="M371.718 186.047C357.812 185.482 338.542 185.835 327.671 185.341C325.695 185.624 316.589 185.412 313.624 185.482C313.624 185.2 315.459 185.412 315.6 185.129C312.636 185.624 310.73 184.635 305.577 185.129C308.683 185.2 303.812 185.553 302.259 185.482C302.33 185.2 303.953 185.341 303.6 184.988C300.071 185.412 296.4 184.918 293.577 185.694C294.636 185.059 291.883 185.341 291.6 184.988C283.977 185.412 265.624 184.706 255.53 185.694C256.73 185.2 257.506 185.341 255.53 185.2C251.012 184.847 241.341 185.341 235.483 185.341C216.777 185.412 189.812 185.553 166.729 185.482C151.694 185.482 135.247 184.706 126.635 186.188C126.494 186.471 126.847 186.824 126 186.894V187.388C128.4 188.165 129.529 188.588 133.976 188.588C148.165 188.588 170.541 188.235 186.071 188.094C236.33 187.671 298.024 188.094 354.353 188.094C360.495 188.094 368.542 188.659 373.059 187.247V186.753C372.142 186.612 371.789 186.4 371.718 186.047Z" fill="black"/>
</svg>
