<svg width="500" height="500" viewBox="0 0 500 500" fill="none" xmlns="http://www.w3.org/2000/svg"><path d="M146.936 287.92c6.464 0 11.677-2.815 11.677-11.781v-6.36c-1.668 3.962-6.985 8.132-14.491 8.132-8.132.104-20.122-4.379-20.122-22.311 0-13.658 8.549-22.207 20.122-22.207 7.506 0 12.615 4.379 14.595 8.341v-7.298h11.26v40.347c0 14.283-9.07 21.06-23.145 21.06-13.866 0-20.643-6.36-21.894-13.866h11.469c1.251 3.753 4.274 5.943 10.529 5.943zm.209-18.245c7.402 0 11.885-5.526 11.885-14.284v-.834c0-8.444-5.421-13.136-11.885-13.136-7.298 0-11.677 5.526-11.677 14.075 0 4.378 1.043 7.819 3.128 10.321 2.189 2.607 5.317 4.066 8.549 3.858zM193.747 217.755h-12.198v11.051h12.198v-11.051zM193.539 234.436h-11.572v44.726h11.572v-44.726zM210.846 279.162v-36.698h-6.256v-8.132h6.256v-6.36c0-9.175 5.525-14.075 14.908-13.97 1.46 0 2.503 0 3.545.104 1.043 0 2.085.208 3.128.417v8.549c-.73-.104-1.355-.209-2.085-.209s-1.46-.104-2.294-.104c-1.877 0-3.336.521-4.274 1.46-.939 1.251-1.564 2.815-1.356 4.379v5.838h9.279v8.132h-9.279v36.698l-11.572-.104zM261.411 270.717c2.085 0 4.066-.313 6.047-.938v8.549c-2.92.938-5.943 1.355-9.071 1.355-9.696 0-14.283-4.066-14.283-12.928v-24.291h-6.255v-8.132h6.255v-11.26h11.468v11.26h10.843v8.132h-10.947v22.623c0 4.588 2.502 5.63 5.943 5.63zM305.615 265.192h10.634c-1.876 9.487-9.174 15.013-20.538 15.013-7.403 0-12.72-2.085-16.681-6.256-3.858-3.961-6.36-9.696-6.36-16.994 0-14.283 9.487-23.457 22.832-23.457 8.966 0 15.743 4.483 18.871 11.364 1.772 4.066 2.502 8.861 2.397 14.804h-32.84c0 4.17.729 5.838 2.398 8.132 1.459 2.189 5.004 4.066 9.695 4.066 2.294.104 4.588-.521 6.569-1.668 1.146-1.355 2.397-3.023 3.023-5.004zm-10.53-23.458c-5.943 0-10.634 3.649-11.051 10.426h21.477c0-6.256-4.171-10.426-10.426-10.426zM354.616 265.192h10.634c-1.876 9.487-9.174 15.013-20.538 15.013-7.403 0-12.72-2.085-16.681-6.256-3.858-3.961-6.36-9.696-6.36-16.994 0-14.283 9.487-23.457 22.832-23.457 8.966 0 15.743 4.483 18.871 11.364 1.772 4.066 2.502 8.861 2.397 14.804h-32.84c0 4.17.729 5.838 2.293 8.132 1.46 2.189 5.005 4.066 9.696 4.066 2.294.104 4.587-.521 6.568-1.668 1.356-1.355 2.607-3.023 3.128-5.004zm-10.426-23.458c-5.942 0-10.634 3.649-11.051 10.426h21.477c0-6.256-4.17-10.426-10.426-10.426z" fill="#000"/><path d="M393.399 228.91c-2.502.834-8.966 2.92-10.634 3.337.625-3.441 1.147-6.881 1.355-10.426-1.876-.73-3.962-.73-5.942 0 .208 3.545.729 6.985 1.355 10.426-1.668-.417-8.132-2.503-10.634-3.337-.522 1.564-.73 3.232-.626 4.9 3.336.939 6.777 1.669 10.322 2.086-3.128 2.189-5.943 4.795-8.445 7.819 1.459.938 3.962 2.71 5.838 3.962 1.46-3.232 3.128-6.256 5.109-9.175 1.981 2.919 3.649 5.943 5.108 9.175 1.877-1.252 4.379-2.815 5.839-3.962-2.502-2.919-5.317-5.526-8.445-7.819 3.545-.417 6.985-1.043 10.321-2.086.209-.938 0-4.066-.521-4.9z" fill="#F08B71"/></svg>